<?xml version="1.0" encoding="utf-8"?>
<!-- Generator: Adobe Illustrator 19.0.0, SVG Export Plug-In . SVG Version: 6.00 Build 0)  -->
<svg version="1.1" id="VortexSpira" xmlns="http://www.w3.org/2000/svg" xmlns:xlink="http://www.w3.org/1999/xlink" x="0px" y="0px"
	 viewBox="-662 265.6 296.2 296.2" style="enable-background:new -662 265.6 296.2 296.2;" xml:space="preserve">
<style type="text/css">
    /* --- Estilos para Modo Claro (Default) --- */
    .vortex-primary { fill: #4D4D4D; }
    .vortex-accent  { fill: #333333; }

    /* --- Estilos para Modo Oscuro --- */
    @media (prefers-color-scheme: dark) {
        .vortex-primary { fill: #ADADAD; }
        .vortex-accent  { fill: #CCCCCC; }
    }
</style>
<g>
	<path id="XMLID_150_" class="vortex-accent" d="M-573.5,394c31.6,9.9,57.2,15.2,65.9,13.4c-3.2-3.9-5.9-7-11.8-7.6
		c-26.5-2.6-52.7-6.8-76-21.3c-8.9-5.5-18.1-10.4-27.4-15.2c-10.4-5.6-20.8-11.2-29.2-19.8c-14.3-14.7-13.2-30.9,3-43.6
		c15.5-12.2,33.9-18.3,52.5-23.4c20.5-5.6,41.5-9.2,62.8-10c18.8-0.7,37.6-1.2,56.4-0.8c12.6,0.3,25.3,2.4,37.8,4.2
		c-8.5-0.3-16.9-0.8-25.4-1.1c-42.6-1.6-84.5,2.5-124.9,16.5c-10.8,3.8-21.4,9.5-30.8,16.1c-13.9,9.8-16,24.2-6.6,35.9
		c2.9,3.6,6.4,6.9,10.1,9.6c15.8,11.7,34.1,18.1,52.7,23.1c10.8,2.9,21.7,5,32.6,7.4c0.9,0.2,1.8,0,2.4,0.6
		c-16.4-5-33-9.7-49.3-15.3c-8.8-3-16.8-8-23-15.4c-7.1-8.6-6.9-17.8,0.7-26c7.8-8.4,17.7-13.5,28.1-17.6
		c19.5-7.6,39.8-11.6,60.5-13.9c20.5-2.2,40.9-2.5,61.4-0.7c24.1,2.1,47.9,5.8,69.7,17.4c1.9,1,3.8,2.2,5.3,3.7
		c0.8,0.7,1.5,2.6,1.1,3.3c-3.9,6.2-5.6,14-12.8,17.9c-3.8,2.1-7.1,4.9-9.9,6.9c0.6-4.6,2.1-9.6,1.7-14.4c-0.4-5-3.8-8.8-9-12.5
		c8.3,14.6,5.5,24.4-8.6,34.2c-9.2,6.4-19.6,10.1-30.4,12c-9.6,1.7-19.5,2.4-29.2,2.4c-4.7,0-9.7-1.9-14.1-4.1
		c-4.5-2.2-4.7-7.2-1.4-11c5.2-6,20.5-8.7,27.5-4.9c3.8,2,3.9,4.1,0.4,6.6c-5.7,4-14,3.8-19.4-0.6c-2.6,2.7-0.9,4.9,1.4,5.7
		c4.3,1.4,9,2.5,13.5,2.6c9.6,0.1,18.8-2.2,26.9-7.5c4.7-3.1,9.2-6.6,8.7-13c-0.4-6.2-5.3-9-10.2-11.3c-9.7-4.6-20.3-5.7-30.7-5.4
		c-16.6,0.4-32.7,3.8-47.5,11.8c-3.9,2.1-7.6,4.6-12.3,7.5c1.5,0.2,2,0.4,2.3,0.2c17.7-11.7,37.4-16,58-15.9
		c7.7,0,15.3,2.3,22.9,3.8c2,0.4,4,1.6,5.8,2.8c6.8,4.3,7.3,8.2,1.7,15c-0.3-6.4-4.7-10.3-8.9-13.1c-4.5-3-10.2-4.8-15.6-5.7
		c-9.2-1.6-18.3,0.6-26.5,5c-7.1,3.8-14.5,7.5-20.6,12.6c-12.1,10.2-14.9,23.5-9.2,38.3c6,15.6,17.4,26.6,30.9,35.6
		c24.9,16.5,52.5,26.2,81.5,32.1c9.4,1.9,18.9,3.2,28.2,5.9c-10.7-1.3-21.3-2.6-32-3.9c-0.5-0.1-1-0.2-1.5-0.3
		c-6.1-1.8-11-1.2-16.6,3.3c-9.9,7.9-22.4,10-34.7,10.9c-15.5,1.2-30.5-1.3-44.7-7.9c-6.1-2.8-11.2-6.9-15.1-12.6
		c-4.1-6-9.1-11.4-14.2-17.7c24.3,11.2,49.4,13.6,75.2,10.3c-4.6-2.6-8.7-5.7-14.6-5.6c-22.6,0.6-44.8-1.7-65.6-11.5
		c-3.8-1.8-7.4-4.4-10.7-7.2C-560.7,405.6-567,399.7-573.5,394z"/>
	<path id="XMLID_149_" class="vortex-primary" d="M-509.8,382.1c47.8,1.9,94.2,3.6,136.2-22.2c-6.9,10.2-16.8,17.1-27.8,22.9
		c-15.6,8.3-32.4,12.6-49.7,15c-13.3,1.9-26.7,2.5-40.2,3.3c-2.5,0.1-5.9-1.4-7.6-3.3C-502.8,392.9-506.1,387.4-509.8,382.1z"/>
	<path id="XMLID_148_" class="vortex-primary" d="M-536.6,561.8c25.3-31.7,30.4-44.3,30.2-75.7c7.2,5.9,14.9,9.8,23.7,9.8
		c8.3,0,16.6-1.3,24.2-2C-467.5,511-517.3,554.6-536.6,561.8z"/>
	<path id="XMLID_146_" class="vortex-primary" d="M-365.8,342.9c-2.7,7-8.2,11.7-14.4,15.7c-15.1,9.8-32.1,14.2-49.5,17.7
		c-21.5,4.4-43.3,4.4-65.1,4.1c-4.6-0.1-9.3-0.6-13.9-1.1c-0.8-0.1-2-0.7-2.3-1.5c-3.8-8.3-3.8-24,7.5-32c0.6,1.6,1.6,3,1.5,4.4
		c-0.1,7.8,4.2,12.8,10.7,15.3c7.5,2.9,15.4,5.8,23.4,6.5c26.1,2.1,51-2.9,74.4-14.9C-384.2,352.5-375,347.7-365.8,342.9z"/>
	<path id="XMLID_145_" class="vortex-primary" d="M-390.8,381.7c-4.5,16.2-14.3,26.8-28.4,33.1c-11,4.9-22.7,8.2-34.1,12.1
		c-0.9,0.3-2.2,0.5-2.9,0.1c-9.7-5.3-19.3-10.6-28.7-16.9C-451.6,406.8-419.5,401.1-390.8,381.7z"/>
	<path id="XMLID_144_" class="vortex-primary" d="M-434,460.7c-12.8,29.7-37.6,34.5-63.2,26.4c-6.6-2.1-10.9-6.2-12.1-13.7
		c-0.9-5.5-3.3-10.7-5.2-16.3C-488.5,472.6-461.8,473.6-434,460.7z"/>
	<path id="XMLID_130_" class="vortex-primary" d="M-610.6,343.6c-13.9-9-13.3-25.3,1.8-36.1c11.3-8.1,24.1-12.9,37.4-16
		c12.5-2.9,25.1-4.9,37.7-7.3c0.8-0.1,1.6,0.1,2.5,0.7c-7.4,1.8-14.9,3.5-22.2,5.5c-16.2,4.4-31.7,10.2-45.2,20.4
		c-6.8,5.1-12.7,11.1-13.3,20.2C-612.2,335.1-611.1,339.4-610.6,343.6z"/>
	<path id="XMLID_125_" class="vortex-primary" d="M-407.2,415.4c-4,7.4-7.9,14.8-12.1,22c-0.6,1-2.9,1.7-4,1.4c-6.5-1.8-12.8-4-18.8-5.9
		C-430.7,427.1-419.3,421.4-407.2,415.4z"/>
</g>
<g>
	<path class="vortex-accent" d="M-512.2,281.1c0.2,1.9-1.1,3.6-2.9,3.8c-1.9,0.2-3.5-1.1-3.7-3c-0.2-1.9,1.1-3.5,3-3.7
		C-514,277.9-512.4,279.3-512.2,281.1z M-518.3,281.8c0.2,1.6,1.5,2.8,3.1,2.6c1.5-0.2,2.6-1.6,2.4-3.2c-0.2-1.6-1.5-2.8-3.1-2.6
		C-517.4,278.8-518.4,280.2-518.3,281.8z M-514.3,280.1c-0.2-0.1-0.6-0.2-1.1-0.1c-1,0.1-1.5,0.8-1.4,1.7c0.1,0.9,0.7,1.5,1.7,1.4
		c0.4,0,0.8-0.2,1.1-0.4l0.2,0.4c-0.4,0.3-0.8,0.4-1.3,0.5c-1.3,0.1-2.1-0.7-2.2-1.8c-0.1-1.2,0.8-2.1,1.9-2.3
		c0.6-0.1,1.1,0,1.2,0.2L-514.3,280.1z"/>
	<path class="vortex-accent" d="M-508.9,277.2c0.6-0.1,1.3-0.3,2-0.3c1.4-0.1,2.4,0.1,3.1,0.7c0.7,0.6,1.2,1.4,1.3,2.6c0.1,1.2-0.2,2.2-0.8,3
		c-0.6,0.7-1.7,1.2-3.2,1.3c-0.7,0.1-1.3,0.1-1.7,0.1L-508.9,277.2z M-507.4,283.7c0.2,0,0.6,0,1,0c2-0.2,3.1-1.4,2.9-3.4
		c-0.1-1.7-1.2-2.8-3.2-2.6c-0.5,0-0.9,0.1-1.1,0.2L-507.4,283.7z"/>
	<path class="vortex-accent" d="M-500.4,277.1c0,0.3-0.2,0.6-0.6,0.6c-0.3,0-0.6-0.2-0.6-0.6c0-0.3,0.2-0.6,0.6-0.6
		C-500.7,276.5-500.4,276.8-500.4,277.1z M-501,284l-0.4-5.3l1-0.1l0.4,5.3L-501,284z"/>
	<path class="vortex-accent" d="M-498.1,281.3c0.1,1.3,1,1.8,1.9,1.7c0.7,0,1.1-0.2,1.5-0.4l0.2,0.7c-0.3,0.2-0.9,0.4-1.8,0.4
		c-1.6,0.1-2.7-0.9-2.8-2.5c-0.1-1.6,0.8-2.9,2.3-3c1.7-0.1,2.3,1.4,2.3,2.4c0,0.2,0,0.4,0,0.5L-498.1,281.3z M-495.3,280.5
		c0-0.6-0.3-1.6-1.4-1.5c-1,0.1-1.4,1-1.4,1.7L-495.3,280.5z"/>
	<path class="vortex-accent" d="M-488.7,278c0,0.4,0,0.8,0,1.5l0.1,3.1c0,1.2-0.2,2-0.7,2.5c-0.5,0.5-1.2,0.7-1.9,0.7c-0.6,0-1.3-0.1-1.8-0.4
		l0.2-0.7c0.4,0.2,0.9,0.4,1.6,0.4c1,0,1.7-0.6,1.6-1.9l0-0.6l0,0c-0.3,0.5-0.8,0.9-1.7,1c-1.3,0-2.3-1-2.4-2.5
		c-0.1-1.8,1.1-2.9,2.3-2.9c0.9,0,1.4,0.4,1.7,0.9l0,0l0-0.8L-488.7,278z M-489.6,280.2c0-0.2,0-0.3-0.1-0.4c-0.2-0.6-0.7-1-1.4-1
		c-0.9,0-1.6,0.8-1.5,2.1c0,1,0.6,1.9,1.6,1.9c0.6,0,1.1-0.4,1.3-1c0-0.2,0.1-0.4,0.1-0.5L-489.6,280.2z"/>
	<path class="vortex-accent" d="M-482.1,280.5c0,2-1.3,2.9-2.6,2.9c-1.4,0-2.6-1-2.6-2.7c0-1.8,1.1-2.9,2.6-2.9
		C-483.2,277.8-482.2,278.9-482.1,280.5z M-486.4,280.6c0,1.2,0.7,2,1.7,2c0.9,0,1.6-0.9,1.6-2.1c0-0.9-0.5-2-1.6-2
		C-485.9,278.6-486.4,279.6-486.4,280.6z"/>
	<path class="vortex-accent" d="M-472.9,282.9c-0.4,0.2-1.3,0.4-2.3,0.4c-1.1,0-2-0.3-2.8-1c-0.6-0.6-1-1.6-1-2.8c0-2.2,1.6-3.8,4-3.8
		c0.9,0,1.5,0.2,1.8,0.4l-0.2,0.8c-0.4-0.2-0.9-0.3-1.6-0.3c-1.8,0-3,1.1-3,3c0,1.9,1.1,3,2.8,3c0.6,0,1.1-0.1,1.3-0.2l0-2.2l-1.5,0
		l0-0.8l2.4,0L-472.9,282.9z"/>
	<path class="vortex-accent" d="M-466.6,280.7c-0.1,2-1.4,2.8-2.7,2.8c-1.4,0-2.5-1.1-2.5-2.8c0-1.8,1.2-2.8,2.7-2.8
		C-467.5,277.9-466.5,279-466.6,280.7z M-470.8,280.6c0,1.2,0.6,2.1,1.6,2.1c0.9,0,1.6-0.8,1.7-2c0-0.9-0.4-2.1-1.5-2.1
		C-470.2,278.6-470.8,279.6-470.8,280.6z"/>
	<path class="vortex-accent" d="M-465.3,279.5c0-0.5,0-1,0-1.4l0.9,0l0,0.9l0,0c0.3-0.5,0.9-1,1.8-0.9c0.7,0,1.9,0.5,1.8,2.3l-0.1,3.2l-1,0
		l0.1-3.1c0-0.9-0.3-1.6-1.2-1.6c-0.6,0-1.2,0.4-1.3,0.9c0,0.1-0.1,0.3-0.1,0.4l-0.1,3.2l-1,0L-465.3,279.5z"/>
	<path class="vortex-accent" d="M-460,283.1l2.6-3c0.2-0.3,0.5-0.5,0.7-0.8l0,0l-2.9-0.2l0-0.8l4.1,0.2l0,0.6l-2.6,2.9
		c-0.2,0.3-0.5,0.5-0.7,0.8l0,0l3.1,0.2l0,0.8l-4.3-0.3L-460,283.1z"/>
	<path class="vortex-accent" d="M-451.8,284.2l0-0.7l0,0c-0.3,0.4-0.9,0.7-1.7,0.7c-1.1-0.1-1.6-0.9-1.5-1.6c0.1-1.3,1.3-1.9,3.3-1.7l0-0.1
		c0-0.4,0-1.2-1.1-1.3c-0.5,0-1,0.1-1.4,0.3l-0.2-0.7c0.5-0.3,1.1-0.4,1.8-0.3c1.6,0.1,1.9,1.3,1.9,2.3l-0.1,2c0,0.5,0,0.9,0,1.3
		L-451.8,284.2z M-451.7,281.5c-1.1-0.1-2.3,0-2.3,1c0,0.6,0.3,1,0.8,1c0.7,0.1,1.2-0.4,1.3-0.8c0-0.1,0.1-0.2,0.1-0.3L-451.7,281.5
		z M-450.9,276.6l-1.5,1.5l-0.7-0.1l1.1-1.5L-450.9,276.6z"/>
	<path class="vortex-accent" d="M-448.8,276.6l1,0.1l-0.7,7.8l-1-0.1L-448.8,276.6z"/>
	<path class="vortex-accent" d="M-446.1,282.2c-0.1,1.3,0.7,1.9,1.6,2c0.7,0.1,1.1,0,1.5-0.1l0.1,0.7c-0.4,0.1-1,0.2-1.8,0.2
		c-1.6-0.2-2.5-1.3-2.3-2.9c0.2-1.6,1.2-2.8,2.8-2.6c1.7,0.2,2,1.7,1.9,2.7c0,0.2-0.1,0.3-0.1,0.4L-446.1,282.2z M-443.2,281.8
		c0.1-0.6-0.1-1.6-1.2-1.7c-1-0.1-1.5,0.8-1.6,1.4L-443.2,281.8z"/>
	<path class="vortex-accent" d="M-442,284.5l2.7-2.8c0.3-0.3,0.5-0.5,0.8-0.7l0,0l-2.9-0.3l0.1-0.8l4,0.5l-0.1,0.6l-2.7,2.8
		c-0.3,0.3-0.5,0.5-0.8,0.8l0,0l3.1,0.3l-0.1,0.8l-4.3-0.5L-442,284.5z"/>
	<path class="vortex-accent" d="M-433.4,278.7l4,0.5l-0.1,0.8l-3-0.4l-0.3,2.4l2.8,0.4l-0.1,0.8l-2.8-0.4l-0.4,3.3l-0.9-0.1L-433.4,278.7z"/>
	<path class="vortex-accent" d="M-428.6,284.3c-0.2,1.3,0.6,2,1.5,2.1c0.7,0.1,1.1,0,1.5-0.1l0.1,0.7c-0.4,0.1-1,0.2-1.8,0.1
		c-1.6-0.2-2.4-1.5-2.2-3c0.2-1.6,1.4-2.7,2.9-2.5c1.7,0.3,1.9,1.8,1.8,2.8c0,0.2-0.1,0.3-0.1,0.4L-428.6,284.3z M-425.7,284
		c0.1-0.6,0-1.6-1.1-1.8c-1-0.1-1.5,0.7-1.7,1.3L-425.7,284z"/>
	<path class="vortex-accent" d="M-423.5,283.9c0.1-0.6,0.2-1.2,0.2-1.6l0.8,0.1l-0.1,1l0,0c0.4-0.7,1-1,1.6-0.9c0.1,0,0.2,0,0.3,0.1l-0.1,0.9
		c-0.1,0-0.2-0.1-0.3-0.1c-0.7-0.1-1.2,0.3-1.5,1c0,0.1-0.1,0.3-0.1,0.4l-0.5,2.8l-0.9-0.2L-423.5,283.9z"/>
	<path class="vortex-accent" d="M-419.9,284.3c0.1-0.5,0.2-1,0.2-1.4l0.8,0.2l-0.1,0.9l0,0c0.3-0.5,1-0.8,1.9-0.7c0.7,0.1,1.8,0.8,1.5,2.6
		l-0.6,3.1l-1-0.2l0.5-3c0.2-0.8,0-1.6-0.9-1.8c-0.6-0.1-1.2,0.2-1.5,0.7c-0.1,0.1-0.1,0.3-0.1,0.4l-0.6,3.2l-1-0.2L-419.9,284.3z"
		/>
	<path class="vortex-accent" d="M-411.7,289.7l0.1-0.7l0,0c-0.4,0.4-1,0.6-1.7,0.5c-1.1-0.2-1.5-1.1-1.3-1.8c0.2-1.3,1.5-1.7,3.5-1.3l0-0.1
		c0.1-0.4,0.1-1.2-0.9-1.4c-0.5-0.1-1,0-1.4,0.1l-0.1-0.7c0.5-0.2,1.1-0.3,1.8-0.1c1.6,0.3,1.8,1.5,1.6,2.5l-0.4,2
		c-0.1,0.5-0.2,0.9-0.2,1.3L-411.7,289.7z M-411.3,287c-1-0.2-2.2-0.3-2.4,0.7c-0.1,0.6,0.2,1,0.7,1.1c0.7,0.1,1.2-0.2,1.4-0.6
		c0.1-0.1,0.1-0.2,0.1-0.3L-411.3,287z M-409.9,282.3l-1.6,1.3l-0.7-0.1l1.3-1.4L-409.9,282.3z"/>
	<path class="vortex-accent" d="M-408.6,286.4c0.1-0.5,0.2-1,0.3-1.4l0.8,0.2l-0.1,0.9l0,0c0.4-0.4,1.1-0.8,1.9-0.6c0.7,0.2,1.7,0.8,1.4,2.6
		l-0.7,3.1l-0.9-0.2l0.6-3c0.2-0.8,0-1.6-0.9-1.8c-0.6-0.1-1.2,0.2-1.5,0.7c-0.1,0.1-0.1,0.3-0.2,0.4l-0.7,3.1l-0.9-0.2
		L-408.6,286.4z"/>
	<path class="vortex-accent" d="M-397.2,284.9l-1.5,6.3c-0.1,0.5-0.2,1-0.3,1.3l-0.8-0.2l0.2-0.9l0,0c-0.4,0.5-1.2,0.8-2,0.6
		c-1.3-0.3-2-1.6-1.6-3.2c0.4-1.7,1.7-2.5,3-2.2c0.8,0.2,1.2,0.7,1.4,1.2l0,0l0.7-3.1L-397.2,284.9z M-399.2,289.2
		c0-0.1,0.1-0.3,0-0.4c0-0.6-0.4-1.2-1.1-1.4c-1-0.2-1.8,0.5-2,1.6c-0.2,1,0.1,2,1.1,2.3c0.6,0.1,1.3-0.1,1.6-0.8
		c0.1-0.1,0.1-0.2,0.1-0.4L-399.2,289.2z"/>
	<path class="vortex-accent" d="M-396.3,290.6c-0.3,1.3,0.4,2,1.3,2.2c0.7,0.2,1.1,0.2,1.5,0.1l0,0.7c-0.4,0.1-1,0.1-1.8-0.1
		c-1.6-0.4-2.3-1.7-1.9-3.2c0.4-1.6,1.6-2.6,3.1-2.2c1.7,0.4,1.8,2,1.5,3c0,0.2-0.1,0.3-0.1,0.4L-396.3,290.6z M-393.4,290.6
		c0.2-0.6,0.1-1.6-0.9-1.9c-0.9-0.2-1.6,0.5-1.8,1.2L-393.4,290.6z"/>
	<path class="vortex-accent" d="M-392.6,293.5l3.1-2.4c0.3-0.2,0.6-0.4,0.9-0.6l0,0l-2.8-0.7l0.2-0.8l3.9,1l-0.2,0.6l-3.1,2.4
		c-0.3,0.2-0.6,0.4-0.9,0.6l0,0l3,0.8l-0.2,0.7l-4.2-1.1L-392.6,293.5z"/>
</g>
<g>
	<path class="vortex-primary" d="M-430.3,366.4l-4.3-6.5l1-0.3l2.1,3.2c0.6,0.9,1.1,1.7,1.5,2.5l0,0c0-0.9,0-1.9,0.1-2.9l0.3-3.9l1-0.3
		l-0.6,7.8L-430.3,366.4z"/>
	<path class="vortex-primary" d="M-422.4,361.3c0.6,1.9-0.5,3.1-1.7,3.5c-1.4,0.4-2.8-0.3-3.2-1.9c-0.5-1.7,0.3-3,1.7-3.5
		C-424.2,359-422.9,359.7-422.4,361.3z M-426.4,362.6c0.3,1.1,1.2,1.8,2.1,1.5c0.9-0.3,1.3-1.3,0.9-2.5c-0.3-0.9-1-1.8-2.1-1.5
		C-426.6,360.4-426.7,361.6-426.4,362.6z"/>
	<path class="vortex-primary" d="M-421.5,360c-0.2-0.6-0.4-1.1-0.6-1.6l0.8-0.3l0.4,1l0,0c0-0.8,0.4-1.4,1-1.6c0.1,0,0.2,0,0.3-0.1l0.3,0.9
		c-0.1,0-0.2,0-0.3,0.1c-0.6,0.2-0.9,0.9-0.8,1.6c0,0.1,0,0.3,0.1,0.4l0.9,2.7l-0.9,0.3L-421.5,360z"/>
	<path class="vortex-primary" d="M-417.8,355.3l0.5,1.4l1.3-0.5l0.3,0.7l-1.3,0.5l1,2.7c0.2,0.6,0.5,0.9,1,0.7c0.2-0.1,0.4-0.2,0.5-0.3l0.3,0.7
		c-0.1,0.1-0.4,0.3-0.8,0.4c-0.4,0.2-0.8,0.1-1.1,0c-0.4-0.2-0.6-0.6-0.8-1.2l-1-2.7l-0.8,0.3l-0.3-0.7l0.8-0.3l-0.4-1.2
		L-417.8,355.3z"/>
	<path class="vortex-primary" d="M-413.5,358.4c0.5,1.2,1.5,1.4,2.4,1.1c0.6-0.3,1-0.5,1.3-0.8l0.4,0.6c-0.3,0.3-0.7,0.6-1.5,1
		c-1.5,0.6-2.8-0.1-3.4-1.5s-0.2-3,1.3-3.6c1.6-0.6,2.6,0.6,3,1.5c0.1,0.2,0.1,0.3,0.1,0.4L-413.5,358.4z M-411.2,356.7
		c-0.2-0.6-0.8-1.4-1.8-1c-0.9,0.4-1,1.4-0.8,2L-411.2,356.7z"/>
	<path class="vortex-primary" d="M-409.6,353.7l1.1,0.8c0.3,0.2,0.6,0.4,0.8,0.6l0,0c0-0.4,0.1-0.7,0.1-1l0.2-1.3l1-0.4l-0.7,3.1l2.8,1.8
		l-1,0.4l-1.2-0.8c-0.3-0.2-0.6-0.4-0.9-0.6l0,0c0,0.4-0.1,0.7-0.2,1.1l-0.2,1.4l-1,0.4l0.7-3.2l-2.7-1.7L-409.6,353.7z"/>
	<path class="vortex-primary" d="M-403.8,355.8c0.5,0.1,1.2,0,1.8-0.3c0.9-0.4,1.2-1.1,0.9-1.8c-0.3-0.6-0.8-0.8-1.9-0.8
		c-1.3,0.1-2.2-0.1-2.7-1.1c-0.5-1,0-2.2,1.3-2.8c0.7-0.3,1.3-0.4,1.6-0.4l0.1,0.8c-0.3,0-0.8,0-1.4,0.3c-0.9,0.4-1,1.1-0.8,1.6
		c0.3,0.6,0.8,0.7,1.9,0.7c1.3-0.1,2.2,0.2,2.6,1.2c0.5,1,0.1,2.3-1.5,3c-0.6,0.3-1.4,0.4-1.9,0.4L-403.8,355.8z"/>
	<path class="vortex-primary" d="M-399.7,351.2c-0.3-0.6-0.6-1.1-0.8-1.5l0.8-0.4l0.5,0.8l0,0c0.1-0.8,0.4-1.4,1.2-1.8c1.1-0.6,2.5,0,3.2,1.4
		c0.9,1.7,0.2,3.1-0.9,3.6c-0.6,0.3-1.3,0.3-1.8,0l0,0l1.3,2.6l-0.9,0.4L-399.7,351.2z M-398.2,352c0.1,0.1,0.1,0.2,0.2,0.3
		c0.5,0.5,1.2,0.7,1.8,0.4c0.9-0.5,1.1-1.5,0.5-2.6c-0.5-1-1.4-1.5-2.3-1.1c-0.6,0.3-0.9,1-0.8,1.7c0,0.1,0.1,0.3,0.1,0.4
		L-398.2,352z"/>
	<path class="vortex-primary" d="M-394.7,345c0.2,0.3,0.1,0.6-0.3,0.8c-0.3,0.2-0.6,0-0.8-0.2c-0.2-0.3-0.1-0.7,0.2-0.8
		C-395.2,344.5-394.9,344.7-394.7,345z M-392.4,351.5l-2.5-4.7l0.9-0.5l2.5,4.7L-392.4,351.5z"/>
	<path class="vortex-primary" d="M-391.9,347c-0.3-0.5-0.6-1-0.9-1.4l0.7-0.4l0.5,0.9l0,0c-0.1-0.7,0.1-1.4,0.7-1.7c0.1-0.1,0.2-0.1,0.3-0.1
		l0.4,0.8c-0.1,0-0.2,0.1-0.3,0.1c-0.6,0.3-0.8,1-0.5,1.7c0,0.1,0.1,0.3,0.2,0.4l1.4,2.5l-0.8,0.5L-391.9,347z"/>
	<path class="vortex-primary" d="M-384.4,346.9l-0.4-0.5l0,0c0,0.5-0.3,1.1-1,1.5c-0.9,0.6-1.8,0.2-2.2-0.5c-0.7-1.1,0-2.3,1.7-3.3l-0.1-0.1
		c-0.2-0.4-0.7-1-1.7-0.4c-0.4,0.3-0.8,0.7-1,1l-0.5-0.4c0.2-0.5,0.7-1,1.3-1.3c1.4-0.8,2.3-0.1,2.9,0.8l1,1.7
		c0.2,0.4,0.5,0.8,0.7,1.1L-384.4,346.9z M-385.9,344.7c-0.9,0.5-1.9,1.3-1.3,2.2c0.3,0.5,0.8,0.6,1.3,0.3c0.6-0.4,0.7-1,0.6-1.4
		c0-0.1-0.1-0.2-0.1-0.3L-385.9,344.7z"/>
</g>
</svg>
