<?xml version="1.0" encoding="utf-8"?>
<!-- Generator: Adobe Illustrator 19.0.0, SVG Export Plug-In . SVG Version: 6.00 Build 0)  -->
<svg version="1.1" id="Capa_1" xmlns="http://www.w3.org/2000/svg" xmlns:xlink="http://www.w3.org/1999/xlink" x="0px" y="0px"
	 viewBox="0 0 154 148" enable-background="new 0 0 154 148" xml:space="preserve">
<g id="obras">
	<path id="obras" fill="#333333" d="M77.8,140c-20.8,0-41.6,0-62.5,0c-10.2,0-14.5-7.2-9.5-15.9C26.7,88.2,47.8,52.6,68.2,16.6
		c4.7-8.3,14.7-8.8,19.8,0.2c20.3,35.9,41.4,71.4,62.1,107c5.1,8.8,0.8,16.1-9.3,16.2C119.8,140,98.8,139.9,77.8,140
		C77.8,139.9,77.8,140,77.8,140z M78.1,25.1C58.1,59.6,38.6,93,18.9,126.7c39.8,0,78.7,0,118.2,0C117.4,92.8,98.1,59.5,78.1,25.1z"
		/>
	<path id="obras" fill="#333333" d="M59.6,101.7c4.6-2.4,9.5-12.6,8.6-18c-1.2-7.5-1.2-7.5,2.4-13.3c-4.4-1.2-10-1.8-8.3-8.2
		c0.5-1.9,3.6-4.2,5.6-4.4c4.9-0.4,6.1,3.5,6.4,8.1c2.5-1,4.7-1.9,7-2.8c9.3-3.3,14.7-0.4,17,9.2c0.3,1.5,0.2,3.2,1,4.3
		c2.9,4,0.9,5.5-2.5,6.1c0.2,13.3,7.8,22.2,17.4,29.8c-2.1,7.3-4.1,9.4-9.2,9.1c3.9-4,1.7-6.4-1.7-9.2c-10.8-8.7-11.5-9.9-15-19.4
		c-1.6,4.4-3.6,8.8-4.9,13.3c-1.2,4.3-1.6,8.8-2.7,13.2c-0.3,1-1.9,2.2-3,2.4c-2.9,0.3-5.9,0.1-9.6-0.4c7.2-1.3,5.6-6.5,5.9-10.9
		c0.4-5.1,0.9-10.2,1.5-16.1c-2.6,2.1-4.6,4.4-7.2,5.8c-2.6,1.5-5.7,2.1-8.3,3.1c1.9,6.5,3.6,12.2,5.4,18.1
		c-1.5,0.2-2.3,0.4-3.1,0.4c-10.8,0-21.6,0-33.4,0c4.3-7.8,8.2-14.9,12.3-22.1c4.4-7.9,7-8.1,13.5-1.7
		C56,99.8,57.9,100.7,59.6,101.7z M71.6,93.8c0.3,0.3,0.5,0.7,0.8,1c2.4-2.5,5.4-4.7,6.8-7.7c0.5-1.2-2.6-4.1-4.1-6.2
		C73.7,85.8,72.7,89.8,71.6,93.8z M94.4,80.4c2-5.6-1.9-12.1-7.3-11.5C89.6,72.8,91.9,76.5,94.4,80.4z"/>
</g>
<g id="XMLID_1_">
</g>
<g id="XMLID_42_">
</g>
<g id="XMLID_43_">
</g>
<g id="XMLID_44_">
</g>
<g id="XMLID_45_">
</g>
<g id="XMLID_46_">
</g>
<g id="XMLID_47_">
</g>
<g id="XMLID_48_">
</g>
<g id="XMLID_49_">
</g>
<g id="XMLID_50_">
</g>
<g id="XMLID_51_">
</g>
<g id="XMLID_52_">
</g>
<g id="XMLID_53_">
</g>
<g id="XMLID_54_">
</g>
<g id="XMLID_55_">
</g>
</svg>
