<?xml version="1.0" encoding="utf-8"?>
<!-- Generator: Adobe Illustrator 19.0.0, SVG Export Plug-In . SVG Version: 6.00 Build 0)  -->
<svg version="1.1" id="Capa_1" xmlns="http://www.w3.org/2000/svg" xmlns:xlink="http://www.w3.org/1999/xlink" x="0px" y="0px"
	 viewBox="0 0 72 72" style="enable-background:new 0 0 72 72;" xml:space="preserve">
<path id="XMLID_81_" d="M35.9,72C15.9,72,0,56,0,35.8C0,15.8,16.1-0.1,36.3,0C56.1,0.1,72,16.1,72,35.9C72,56,56,72,35.9,72z
	 M27.1,32.6c6.2,0,11.9,0,17.8,0c-0.4-3-0.7-5.6-1.1-8.4c-5.3,0-10.4,0-15.6,0C27.8,27,27.5,29.6,27.1,32.6z M43.9,47.8
	c0.3-2.9,0.6-5.6,0.9-8.5c-6.1,0-11.7,0-17.7,0c0.4,3,0.7,5.7,1,8.5C33.6,47.8,38.7,47.8,43.9,47.8z M21.5,24.3
	C7.9,23.8,7.1,22,7,33c2.3,0,4.6,0,6.9,0c2.3,0,4.5,0,6.9,0C21.1,29.8,21.3,27.2,21.5,24.3z M65.3,32.8c-0.8-9.7-2.8-10.8-14.8-8.2
	c0.3,2.7,0.5,5.4,0.8,8.2C56.1,32.8,60.5,32.8,65.3,32.8z M7.1,39.2c-0.5,0.4-1.1,0.7-1.6,1.1c1.7,2.6,2.8,6.4,5.1,7.4
	C13.7,49,17.7,48,21.5,48c-0.3-3.3-0.5-6-0.7-8.8C16,39.2,11.6,39.2,7.1,39.2z M50.5,47.6c13.4,1.5,14.6,0.8,14.5-8.3
	c-4.6,0-9.1,0-13.9,0C50.9,42.1,50.7,44.7,50.5,47.6z M28.5,17.8c5.5,0,9.6,0,14.9,0C41,13.3,39,9.4,37,5.6
	c-0.7,0.1-1.4,0.1-2.2,0.2C32.9,9.4,31,13.1,28.5,17.8z M34.7,66.3c0.8,0,1.7,0,2.5,0c1.9-3.8,3.8-7.6,6.1-12.1c-5.2,0-9.3,0-14.6,0
	C30.9,58.6,32.8,62.4,34.7,66.3z M25.5,8.8c-0.3-0.4-0.6-0.7-0.9-1.1c-4,3-7.9,6-11.9,9c0.3,0.4,0.5,0.7,0.8,1.1c3.1,0,6.1,0,9.2,0
	C23.6,14.7,24.5,11.7,25.5,8.8z M49.3,17.7c3.3,0,6.3,0,9.3,0c0.2-0.4,0.4-0.8,0.6-1.2c-4-2.9-8-5.9-12-8.8c-0.3,0.3-0.6,0.6-0.8,1
	C47.4,11.6,48.3,14.5,49.3,17.7z M13.3,54.2c-0.2,0.4-0.5,0.8-0.7,1.2c4,3,8,5.9,12,8.9c0.3-0.3,0.6-0.6,0.9-0.9
	c-1-3-1.9-6.1-2.9-9.1C19.4,54.2,16.4,54.2,13.3,54.2z M49.4,54.3c-1,3-1.9,6-2.9,9.1c0.3,0.3,0.6,0.6,0.9,0.9c4-2.9,8-5.9,11.9-8.8
	c-0.2-0.4-0.4-0.8-0.7-1.2C55.6,54.3,52.6,54.3,49.4,54.3z"/>
</svg>
